<svg xmlns="http://www.w3.org/2000/svg" version="1.1" xmlns:xlink="http://www.w3.org/1999/xlink" xmlns:svgjs="http://svgjs.com/svgjs" width="1920" height="1080" preserveAspectRatio="none" viewBox="0 0 1920 1080">
    <g mask="url(&quot;#SvgjsMask1096&quot;)" fill="none">
        <rect width="1920" height="1080" x="0" y="0" fill="url(#SvgjsLinearGradient1097)"></rect>
        <path d="M163 264L900 1001" stroke-width="8" stroke="url(#SvgjsLinearGradient1098)" stroke-linecap="round" class="BottomRight"></path>
        <path d="M897 826L1198 1127" stroke-width="6" stroke="url(#SvgjsLinearGradient1098)" stroke-linecap="round" class="BottomRight"></path>
        <path d="M934 8L1725 799" stroke-width="10" stroke="url(#SvgjsLinearGradient1098)" stroke-linecap="round" class="BottomRight"></path>
        <path d="M930 1050L352 472" stroke-width="6" stroke="url(#SvgjsLinearGradient1099)" stroke-linecap="round" class="BottomRight"></path>
        <path d="M311 695L-225 159" stroke-width="6" stroke="url(#SvgjsLinearGradient1100)" stroke-linecap="round" class="TopLeft"></path>
        <path d="M691 726L1201 1236" stroke-width="6" stroke="url(#SvgjsLinearGradient1101)" stroke-linecap="round" class="TopLeft"></path>
        <path d="M381 198L-346 -529" stroke-width="10" stroke="url(#SvgjsLinearGradient1101)" stroke-linecap="round" class="TopLeft"></path>
        <path d="M1624 383L970 -271" stroke-width="6" stroke="url(#SvgjsLinearGradient1099)" stroke-linecap="round" class="BottomRight"></path>
        <path d="M123 866L553 1296" stroke-width="8" stroke="url(#SvgjsLinearGradient1100)" stroke-linecap="round" class="TopLeft"></path>
        <path d="M1084 648L793 357" stroke-width="10" stroke="url(#SvgjsLinearGradient1101)" stroke-linecap="round" class="TopLeft"></path>
        <path d="M66 245L357 536" stroke-width="8" stroke="url(#SvgjsLinearGradient1099)" stroke-linecap="round" class="BottomRight"></path>
        <path d="M1033 926L283 176" stroke-width="6" stroke="url(#SvgjsLinearGradient1101)" stroke-linecap="round" class="TopLeft"></path>
        <path d="M394 355L-307 -346" stroke-width="10" stroke="url(#SvgjsLinearGradient1101)" stroke-linecap="round" class="TopLeft"></path>
        <path d="M289 585L-215 81" stroke-width="10" stroke="url(#SvgjsLinearGradient1101)" stroke-linecap="round" class="TopLeft"></path>
        <path d="M1681 606L892 -183" stroke-width="8" stroke="url(#SvgjsLinearGradient1100)" stroke-linecap="round" class="TopLeft"></path>
        <path d="M676 574L175 73" stroke-width="8" stroke="url(#SvgjsLinearGradient1100)" stroke-linecap="round" class="TopLeft"></path>
        <path d="M664 635L205 176" stroke-width="8" stroke="url(#SvgjsLinearGradient1100)" stroke-linecap="round" class="TopLeft"></path>
        <path d="M935 254L266 -415" stroke-width="10" stroke="url(#SvgjsLinearGradient1100)" stroke-linecap="round" class="TopLeft"></path>
        <path d="M1372 1019L928 575" stroke-width="6" stroke="url(#SvgjsLinearGradient1101)" stroke-linecap="round" class="TopLeft"></path>
        <path d="M1735 636L2039 940" stroke-width="10" stroke="url(#SvgjsLinearGradient1100)" stroke-linecap="round" class="TopLeft"></path>
        <path d="M45 272L-482 -255" stroke-width="8" stroke="url(#SvgjsLinearGradient1099)" stroke-linecap="round" class="BottomRight"></path>
        <path d="M596 510L-199 -285" stroke-width="6" stroke="url(#SvgjsLinearGradient1101)" stroke-linecap="round" class="TopLeft"></path>
        <path d="M671 886L1473 1688" stroke-width="8" stroke="url(#SvgjsLinearGradient1099)" stroke-linecap="round" class="BottomRight"></path>
        <path d="M1517 688L2072 1243" stroke-width="6" stroke="url(#SvgjsLinearGradient1101)" stroke-linecap="round" class="TopLeft"></path>
        <path d="M867 841L1428 1402" stroke-width="6" stroke="url(#SvgjsLinearGradient1099)" stroke-linecap="round" class="BottomRight"></path>
        <path d="M255 194L856 795" stroke-width="6" stroke="url(#SvgjsLinearGradient1098)" stroke-linecap="round" class="BottomRight"></path>
        <path d="M1343 314L546 -483" stroke-width="8" stroke="url(#SvgjsLinearGradient1100)" stroke-linecap="round" class="TopLeft"></path>
        <path d="M1477 260L2111 894" stroke-width="6" stroke="url(#SvgjsLinearGradient1098)" stroke-linecap="round" class="BottomRight"></path>
        <path d="M1374 221L2011 858" stroke-width="10" stroke="url(#SvgjsLinearGradient1098)" stroke-linecap="round" class="BottomRight"></path>
        <path d="M1275 927L594 246" stroke-width="10" stroke="url(#SvgjsLinearGradient1098)" stroke-linecap="round" class="BottomRight"></path>
        <path d="M1219 936L1988 1705" stroke-width="6" stroke="url(#SvgjsLinearGradient1101)" stroke-linecap="round" class="TopLeft"></path>
        <path d="M1711 559L1091 -61" stroke-width="6" stroke="url(#SvgjsLinearGradient1101)" stroke-linecap="round" class="TopLeft"></path>
        <path d="M688 587L32 -69" stroke-width="6" stroke="url(#SvgjsLinearGradient1099)" stroke-linecap="round" class="BottomRight"></path>
        <path d="M639 778L1156 1295" stroke-width="10" stroke="url(#SvgjsLinearGradient1100)" stroke-linecap="round" class="TopLeft"></path>
        <path d="M1489 164L1944 619" stroke-width="6" stroke="url(#SvgjsLinearGradient1101)" stroke-linecap="round" class="TopLeft"></path>
        <path d="M474 785L-206 105" stroke-width="6" stroke="url(#SvgjsLinearGradient1100)" stroke-linecap="round" class="TopLeft"></path>
        <path d="M691 300L177 -214" stroke-width="6" stroke="url(#SvgjsLinearGradient1101)" stroke-linecap="round" class="TopLeft"></path>
        <path d="M529 709L1097 1277" stroke-width="8" stroke="url(#SvgjsLinearGradient1098)" stroke-linecap="round" class="BottomRight"></path>
        <path d="M1239 577L1837 1175" stroke-width="8" stroke="url(#SvgjsLinearGradient1098)" stroke-linecap="round" class="BottomRight"></path>
        <path d="M1777 223L2373 819" stroke-width="8" stroke="url(#SvgjsLinearGradient1098)" stroke-linecap="round" class="BottomRight"></path>
        <path d="M1378 602L1852 1076" stroke-width="6" stroke="url(#SvgjsLinearGradient1100)" stroke-linecap="round" class="TopLeft"></path>
        <path d="M813 1009L1350 1546" stroke-width="10" stroke="url(#SvgjsLinearGradient1098)" stroke-linecap="round" class="BottomRight"></path>
        <path d="M1820 910L2261 1351" stroke-width="8" stroke="url(#SvgjsLinearGradient1099)" stroke-linecap="round" class="BottomRight"></path>
        <path d="M222 1071L741 1590" stroke-width="6" stroke="url(#SvgjsLinearGradient1098)" stroke-linecap="round" class="BottomRight"></path>
        <path d="M212 750L513 1051" stroke-width="6" stroke="url(#SvgjsLinearGradient1101)" stroke-linecap="round" class="TopLeft"></path>
        <path d="M994 320L724 50" stroke-width="6" stroke="url(#SvgjsLinearGradient1099)" stroke-linecap="round" class="BottomRight"></path>
        <path d="M1572 684L915 27" stroke-width="8" stroke="url(#SvgjsLinearGradient1100)" stroke-linecap="round" class="TopLeft"></path>
        <path d="M830 827L272 269" stroke-width="6" stroke="url(#SvgjsLinearGradient1100)" stroke-linecap="round" class="TopLeft"></path>
        <path d="M1873 57L2247 431" stroke-width="8" stroke="url(#SvgjsLinearGradient1101)" stroke-linecap="round" class="TopLeft"></path>
        <path d="M593 844L1254 1505" stroke-width="8" stroke="url(#SvgjsLinearGradient1101)" stroke-linecap="round" class="TopLeft"></path>
        <path d="M46 581L712 1247" stroke-width="8" stroke="url(#SvgjsLinearGradient1100)" stroke-linecap="round" class="TopLeft"></path>
        <path d="M1906 783L2191 1068" stroke-width="10" stroke="url(#SvgjsLinearGradient1100)" stroke-linecap="round" class="TopLeft"></path>
        <path d="M1338 1018L825 505" stroke-width="10" stroke="url(#SvgjsLinearGradient1100)" stroke-linecap="round" class="TopLeft"></path>
        <path d="M540 388L1344 1192" stroke-width="10" stroke="url(#SvgjsLinearGradient1101)" stroke-linecap="round" class="TopLeft"></path>
        <path d="M163 704L-259 282" stroke-width="6" stroke="url(#SvgjsLinearGradient1098)" stroke-linecap="round" class="BottomRight"></path>
        <path d="M435 729L1076 1370" stroke-width="10" stroke="url(#SvgjsLinearGradient1101)" stroke-linecap="round" class="TopLeft"></path>
    </g>
    <defs>
        <mask id="SvgjsMask1096">
            <rect width="1920" height="1080" fill="#ffffff"></rect>
        </mask>
        <linearGradient x1="10.94%" y1="-19.44%" x2="89.06%" y2="119.44%" gradientUnits="userSpaceOnUse" id="SvgjsLinearGradient1097">
            <stop stop-color="rgba(18, 35, 52, 1)" offset="0"></stop>
            <stop stop-color="rgba(18, 35, 52, 1)" offset="1"></stop>
        </linearGradient>
        <linearGradient x1="0%" y1="0%" x2="100%" y2="100%" id="SvgjsLinearGradient1098">
            <stop stop-color="rgba(35, 63, 94, 0)" offset="0"></stop>
            <stop stop-color="rgba(35, 63, 94, 1)" offset="1"></stop>
        </linearGradient>
        <linearGradient x1="0%" y1="0%" x2="100%" y2="100%" id="SvgjsLinearGradient1099">
            <stop stop-color="rgba(35, 55, 76, 0)" offset="0"></stop>
            <stop stop-color="rgba(35, 55, 76, 1)" offset="1"></stop>
        </linearGradient>
        <linearGradient x1="100%" y1="100%" x2="0%" y2="0%" id="SvgjsLinearGradient1100">
            <stop stop-color="rgba(35, 55, 76, 0)" offset="0"></stop>
            <stop stop-color="rgba(35, 55, 76, 1)" offset="1"></stop>
        </linearGradient>
        <linearGradient x1="100%" y1="100%" x2="0%" y2="0%" id="SvgjsLinearGradient1101">
            <stop stop-color="rgba(35, 63, 94, 0)" offset="0"></stop>
            <stop stop-color="rgba(35, 63, 94, 1)" offset="1"></stop>
        </linearGradient>
    </defs>
</svg>